<svg xmlns="http://www.w3.org/2000/svg" version="1.1" xmlns:xlink="http://www.w3.org/1999/xlink" width="512" height="512" x="0" y="0" viewBox="0 0 64 64" style="enable-background:new 0 0 512 512" xml:space="preserve" class=""><g><path d="M63.359 41.066 51 36.313V20.23c0-.414-.255-.785-.641-.934L46 17.62V6c0-.414-.255-.785-.641-.934l-13-5a1.012 1.012 0 0 0-.719 0l-13 5c-.385.149-.64.52-.64.934v11.62l-4.359 1.677a.999.999 0 0 0-.641.933v16.082L.641 41.066C.255 41.215 0 41.586 0 42v16c0 .414.255.785.641.934l13 5a1.01 1.01 0 0 0 .718 0l13-5c.386-.149.641-.52.641-.934v-1.467l3.641 1.4a.99.99 0 0 0 .718.001l3.641-1.4V58c0 .414.255.785.641.934l13 5a1.01 1.01 0 0 0 .718 0l13-5c.386-.149.641-.52.641-.934V42c0-.414-.255-.785-.641-.934zM60.214 42 50 45.929 39.786 42 49 38.456V42h2v-3.544zM44 18.994v2.319l-11 4.231V11.687l11-4.231v9.395l-4.641-1.785-.719 1.867zM32 2.071 42.214 6 32 9.929 21.786 6zM20 7.456l11 4.231v13.857l-11-4.231v-2.319l5.359-2.061-.719-1.867L20 16.851zm-7 31V42h2v-3.544L24.214 42 14 45.929 3.786 42zm-11 5 11 4.231v13.857L2 57.313zm24 13.857-11 4.231V47.687l11-4.231V53.62l-6.641-2.554-.719 1.867L26 55.764zm6-1.384-4-1.539V42c0-.414-.255-.785-.641-.934L15 36.313V20.917l3-1.154V22c0 .414.255.785.641.934l13 5a1.01 1.01 0 0 0 .718 0l13-5c.386-.149.641-.52.641-.934v-2.237l3 1.154v15.396l-12.359 4.754A.999.999 0 0 0 36 42v12.39zm6-.165 7.359-2.831-.719-1.867L38 53.621V43.456l11 4.231v13.857l-11-4.231zm13 5.78V47.687l11-4.231v13.857z" fill="#000000" opacity="1" data-original="#000000"></path></g></svg>