<svg xmlns="http://www.w3.org/2000/svg" version="1.1" xmlns:xlink="http://www.w3.org/1999/xlink" width="512" height="512" x="0" y="0" viewBox="0 0 66 66" style="enable-background:new 0 0 512 512" xml:space="preserve" class=""><g><path d="M46.6 64.25h14.47c1.63 0 2.94-1.32 2.94-2.94V4.69c0-1.63-1.32-2.94-2.94-2.94h-32.8c-1.63 0-2.94 1.32-2.94 2.94v31.66" style="stroke-width:1.5;stroke-linecap:round;stroke-linejoin:round;stroke-miterlimit:10" fill="none" stroke="#000000" stroke-width="1.5" stroke-linecap="round" stroke-linejoin="round" stroke-miterlimit="1" data-original="#000000"></path><path d="M59.92 60.91H46.6c-.41 0-.75-.34-.75-.75s.34-.75.75-.75h12.57V8.59H30.16v27.4c0 .41-.34.75-.75.75s-.75-.34-.75-.75V7.84c0-.41.34-.75.75-.75h30.51c.41 0 .75.34.75.75v52.32c0 .41-.33.75-.75.75zM49.77 5.7h-5.9c-.41 0-.75-.34-.75-.75s.34-.75.75-.75h5.9a.749.749 0 1 1 0 1.5zM40.91 5.7h-1.35c-.41 0-.75-.34-.75-.75s.34-.75.75-.75h1.35c.41 0 .75.34.75.75s-.34.75-.75.75z" fill="#000000" opacity="1" data-original="#000000" class=""></path><path d="M46.6 65H31.73c-.41 0-.75-.34-.75-.75s.34-.75.75-.75h14.12V51.05H31.73c-.41 0-.75-.34-.75-.75s.34-.75.75-.75H46.6c.41 0 .75.34.75.75v13.95c0 .41-.34.75-.75.75z" fill="#000000" opacity="1" data-original="#000000" class=""></path><path d="M41.32 54.39h-4.31c-.41 0-.75-.34-.75-.75V50.3c0-.41.34-.75.75-.75h4.31c.41 0 .75.34.75.75v3.34c0 .42-.34.75-.75.75zm-3.56-1.5h2.81v-1.84h-2.81zM31.73 65H16.86c-.41 0-.75-.34-.75-.75s.34-.75.75-.75h14.12V50.3c0-.41.34-.75.75-.75s.75.34.75.75v13.95c0 .41-.34.75-.75.75z" fill="#000000" opacity="1" data-original="#000000" class=""></path><path d="M26.45 54.39h-4.31c-.41 0-.75-.34-.75-.75V50.3c0-.41.34-.75.75-.75h4.31c.41 0 .75.34.75.75v3.34c0 .42-.34.75-.75.75zm-3.56-1.5h2.81v-1.84h-2.81zM16.86 65H1.99c-.41 0-.75-.34-.75-.75V50.3c0-.41.34-.75.75-.75s.75.34.75.75v13.2h13.37V50.3c0-.41.34-.75.75-.75s.75.34.75.75v13.95c0 .41-.34.75-.75.75z" fill="#000000" opacity="1" data-original="#000000" class=""></path><path d="M8.58 62H4.99c-.41 0-.75-.34-.75-.75v-4.26c0-.41.34-.75.75-.75s.75.34.75.75v3.51h2.84c.41 0 .75.34.75.75s-.34.75-.75.75zM13.4 62h-1.47c-.41 0-.75-.34-.75-.75s.34-.75.75-.75h1.47c.41 0 .75.34.75.75s-.34.75-.75.75zM11.58 54.39H7.27c-.41 0-.75-.34-.75-.75V50.3c0-.41.34-.75.75-.75h4.31c.41 0 .75.34.75.75v3.34c0 .42-.34.75-.75.75zm-3.56-1.5h2.81v-1.84H8.02zM31.73 51.05H16.86c-.41 0-.75-.34-.75-.75V36.35c0-.41.34-.75.75-.75h14.87c.41 0 .75.34.75.75V50.3c0 .41-.34.75-.75.75zm-14.12-1.5h13.37V37.1H17.61z" fill="#000000" opacity="1" data-original="#000000" class=""></path><path d="M26.45 40.44h-4.31c-.41 0-.75-.34-.75-.75v-3.34c0-.41.34-.75.75-.75h4.31c.41 0 .75.34.75.75v3.34c0 .42-.34.75-.75.75zm-3.56-1.5h2.81V37.1h-2.81zM16.86 51.05H1.99c-.41 0-.75-.34-.75-.75V36.35c0-.41.34-.75.75-.75s.75.34.75.75v13.2h14.12c.41 0 .75.34.75.75s-.34.75-.75.75z" fill="#000000" opacity="1" data-original="#000000" class=""></path><path d="M11.58 40.44H7.27c-.41 0-.75-.34-.75-.75v-3.34c0-.41.34-.75.75-.75h4.31c.41 0 .75.34.75.75v3.34c0 .42-.34.75-.75.75zm-3.56-1.5h2.81V37.1H8.02z" fill="#000000" opacity="1" data-original="#000000" class=""></path><path d="M16.86 37.1H1.99c-.41 0-.75-.34-.75-.75V22.4c0-.41.34-.75.75-.75h14.87c.41 0 .75.34.75.75v13.95c0 .41-.34.75-.75.75zM2.74 35.6h13.37V23.15H2.74z" fill="#000000" opacity="1" data-original="#000000" class=""></path><path d="M11.58 26.49H7.27c-.41 0-.75-.34-.75-.75V22.4c0-.41.34-.75.75-.75h4.31c.41 0 .75.34.75.75v3.34c0 .42-.34.75-.75.75zm-3.56-1.5h2.81v-1.84H8.02zM39.89 47.11c-3.13 0-5.67-2.54-5.67-5.67s2.54-5.67 5.67-5.67 5.67 2.54 5.67 5.67-2.54 5.67-5.67 5.67zm0-9.84c-2.3 0-4.17 1.87-4.17 4.17s1.87 4.17 4.17 4.17 4.17-1.87 4.17-4.17-1.87-4.17-4.17-4.17z" fill="#000000" opacity="1" data-original="#000000" class=""></path><path d="M39.14 43.59c-.19 0-.38-.07-.53-.22l-1.31-1.31c-.29-.29-.29-.77 0-1.06s.77-.29 1.06 0l.78.78 2.28-2.28c.29-.29.77-.29 1.06 0s.29.77 0 1.06l-2.81 2.81c-.14.15-.34.22-.53.22zM39.89 33.99c-3.13 0-5.67-2.54-5.67-5.67s2.54-5.67 5.67-5.67 5.67 2.54 5.67 5.67-2.54 5.67-5.67 5.67zm0-9.84c-2.3 0-4.17 1.87-4.17 4.17s1.87 4.17 4.17 4.17 4.17-1.87 4.17-4.17-1.87-4.17-4.17-4.17z" fill="#000000" opacity="1" data-original="#000000" class=""></path><path d="M39.14 30.47a.75.75 0 0 1-.53-.22l-1.31-1.31c-.29-.29-.29-.77 0-1.06s.77-.29 1.06 0l.78.78 2.28-2.28c.29-.29.77-.29 1.06 0s.29.77 0 1.06l-2.81 2.81a.75.75 0 0 1-.53.22zM55.68 13.3H34.06c-.41 0-.75-.34-.75-.75s.34-.75.75-.75h21.62c.41 0 .75.34.75.75s-.34.75-.75.75zM52.26 16.98H37.47c-.41 0-.75-.34-.75-.75s.34-.75.75-.75h14.79a.749.749 0 1 1 0 1.5zM49.77 20.56h-9.81c-.41 0-.75-.34-.75-.75s.34-.75.75-.75h9.81a.749.749 0 1 1 0 1.5zM56.55 27.25h-8.24c-.41 0-.75-.34-.75-.75s.34-.75.75-.75h8.24a.749.749 0 1 1 0 1.5zM54.39 30.88h-6.07c-.41 0-.75-.34-.75-.75s.34-.75.75-.75h6.07c.41 0 .75.34.75.75s-.34.75-.75.75zM56.55 40.37h-8.24c-.41 0-.75-.34-.75-.75s.34-.75.75-.75h8.24a.749.749 0 1 1 0 1.5zM54.39 44h-6.07c-.41 0-.75-.34-.75-.75s.34-.75.75-.75h6.07c.41 0 .75.34.75.75s-.34.75-.75.75zM8.58 34.16H4.99c-.41 0-.75-.34-.75-.75v-4.26c0-.41.34-.75.75-.75s.75.34.75.75v3.51h2.84c.41 0 .75.34.75.75s-.34.75-.75.75zM13.4 34.16h-1.47c-.41 0-.75-.34-.75-.75s.34-.75.75-.75h1.47c.41 0 .75.34.75.75s-.34.75-.75.75z" fill="#000000" opacity="1" data-original="#000000" class=""></path></g></svg>