<?xml version="1.0" encoding="UTF-8"?>
<svg id="Layer_1" xmlns="http://www.w3.org/2000/svg" version="1.1" viewBox="0 0 384 384">
  <!-- Generator: Adobe Illustrator 29.7.1, SVG Export Plug-In . SVG Version: 2.1.1 Build 8)  -->
  <path d="M234,120h50.62c9.39,0,20.92,10.88,27.01,17.24,14.19,14.82,31.43,33.63,44.25,49.5,9.12,11.29,11.66,19.42,10.86,34.13-.71,12.95-2.69,36.3-5.45,48.55-3.78,16.77-19.82,20.27-34.94,18.68-6.26,19.83-24.41,35.87-44.95,39.43-26.48,4.58-49.23-12.4-50.41-39.52l-74.66-.05c-3.12.26-3.83,5.74-5.46,8.79-12.44,23.31-41.58,38.89-67.39,28.13-14.82-6.18-24.37-20.83-24.24-36.89l-38.29-.33c-8.6-4.58-6.32-15.08,3.41-16.17,11.44-1.28,24.96,1.06,36.63-.12,2.86-4.22,4.39-9.12,7.39-13.61,14.12-21.15,43.41-33.56,67.37-21.15,12.51,6.48,21.1,20.75,20.99,34.89h44.25c6.3-63.43,13.72-126.87,20.95-190.24-.2-6.94-3.75-8.75-10.05-9.29l-165.04.04c-10.85-2.36-8.79-16.47,2.24-16.55h164.31c15.14.69,25.55,11.33,25.08,26.65l-4.49,37.88ZM217.5,271.5h16.5c7.69-25.76,36.97-44.74,63.78-38.65,17.27,3.92,31.52,20.58,30.72,38.65,9.28-.2,15.26,2.41,17.17-8.71,2.08-12.07,3.96-31.13,4.57-43.43.52-10.58-1.18-14.48-7.51-22.47-12.35-15.59-31.29-36.46-45.34-50.66-4.78-4.83-9.35-9.01-16.52-9.73-14.91-1.51-32.1,1.15-47.27-.06l-.99.16-.78,2.58-14.33,132.32ZM110.83,248.46c-22.3,2.59-44.74,30.9-31.48,52.06,12.36,19.72,40.48,10.44,52.63-4.66,16.25-20.2,7.96-50.78-21.15-47.4ZM283.33,248.46c-14.85,1.57-29.16,13.6-33.79,27.71-12.75,38.83,37.73,47.74,57.06,15.81,12.54-20.71,3.26-46.32-23.27-43.52Z"/>
  <path d="M31.31,199.68l104.07-.18c10.24.45,12.38,13.81,2.28,16.54H30.34c-8.78-1.2-9.07-14.67.96-16.35Z"/>
  <path d="M110.8,103.68c17.84,1.36,40.2-2.46,57.51-.11,9.82,1.33,10.97,13.5,1.52,16.39h-59.91c-8.82-2.88-8.02-14.04.88-16.28Z"/>
  <path d="M47.05,151.68c16.72-2.8,40.08,1.66,57.5-.11,9.26,1.65,10.76,13.3,1.53,16.39h-59.91c-9.01-2.46-8.5-14.71.89-16.28Z"/>
  <path d="M181.28,312.16h41.68c8.23,3.96,6.6,14.98-2.91,16.28-6.28.85-31.3.97-37.26-.11-8.45-1.54-9.75-12.98-1.52-16.16Z"/>
  <path d="M25.28,312.16c2.7-.61,23.36-.56,25.76.18,7.53,2.32,6.99,14.47-2.1,15.99-3.71.62-20.06.7-23.32-.32-7.97-2.48-7.42-14.25-.34-15.85Z"/>
  <path d="M62.8,103.68c3.53-.64,17.72-.63,20.65.74,7.23,3.39,5.78,14.41-1.37,15.54-3.06.48-19.55.42-21.89-.53-6.93-2.79-5.52-14.29,2.61-15.75Z"/>
  <path d="M134.8,151.68c3.53-.64,17.72-.63,20.65.74,7.23,3.39,5.78,14.41-1.37,15.54-3.06.48-19.55.42-21.89-.53-6.93-2.79-5.52-14.29,2.61-15.75Z"/>
  <path d="M254.8,151.68c4.04-.73,16.56-.66,20.82-.18,2.14.24,4.28.93,6,2.25l45.35,49.89c2.99,3.97.75,9.47-3.18,11.79-24.8,1.1-49.99.64-74.85.23-4.42-2.41-5.39-4.91-5.25-9.82.44-15.42,3.62-30.93,3.86-46.4.44-3.65,3.67-7.11,7.24-7.76ZM300.75,199.5c-8.17-8.66-15.74-18.05-23.98-26.64-.89-.93-3.78-4.13-4.53-4.47-1.62-.73-8.26-1.03-8.88.84l-2.35,30.27h39.75Z"/>
</svg>